<svg width="21" height="24" viewBox="0 0 21 24" fill="none" xmlns="http://www.w3.org/2000/svg">
<path d="M20.3432 8.18608C20.2286 8.25293 17.5006 9.66372 17.5006 12.7918C17.6292 16.3591 20.9432 17.6102 21 17.6102C20.9432 17.677 20.4997 19.3144 19.186 21.0308C18.1435 22.5093 16.9863 24 15.2292 24C13.5577 24 12.9577 23.0146 11.0292 23.0146C8.95804 23.0146 8.37202 24 6.7863 24C5.02915 24 3.78629 22.4295 2.68691 20.9648C1.25864 19.0479 0.0446668 16.0396 0.00180951 13.1512C-0.0270726 11.6206 0.287835 10.116 1.08722 8.83808C2.21548 7.05397 4.22977 5.84286 6.42947 5.80292C8.11487 5.74996 9.61488 6.8812 10.6435 6.8812C11.6292 6.8812 13.472 5.80292 15.5571 5.80292C16.4571 5.80379 18.8571 6.05643 20.3432 8.18608ZM10.5009 5.49732C10.2009 4.09955 11.0292 2.70178 11.8006 1.81016C12.7863 0.731877 14.3432 0 15.6857 0C15.7714 1.39777 15.2282 2.76863 14.2574 3.76704C13.3863 4.84532 11.8863 5.65707 10.5009 5.49732Z" fill="black"/>
</svg>
