<svg width="45" height="46" viewBox="0 0 45 46" fill="none" xmlns="http://www.w3.org/2000/svg">
<path fill-rule="evenodd" clip-rule="evenodd" d="M39.3287 19.8385C39.3287 23.9921 40.4434 28.0702 42.5572 31.6501L44.8368 35.5107C45.2952 36.287 44.7335 37.2658 43.8296 37.2658H32.8709C32.7395 38.0408 32.5206 38.8004 32.2174 39.5299C31.6888 40.8015 30.9141 41.9569 29.9374 42.9302C28.9607 43.9034 27.8012 44.6755 26.5251 45.2022C25.249 45.7289 23.8813 46 22.5001 46C21.1189 46 19.7512 45.7289 18.4751 45.2022C17.199 44.6755 16.0395 43.9034 15.0628 42.9302C14.0861 41.9569 13.3114 40.8015 12.7828 39.5299C12.4796 38.8004 12.2607 38.0408 12.1293 37.2658H1.17043C0.266508 37.2658 -0.295206 36.287 0.163201 35.5107L2.44278 31.6501C4.55664 28.0702 5.67132 23.9921 5.67132 19.8385V15.4203C5.67132 6.90392 13.2058 0 22.5 0C31.7942 0 39.3287 6.90392 39.3287 15.4203V19.8385ZM9.17729 15.4203C9.17729 9.10353 14.8594 3.49367 22.5 3.49367C30.1406 3.49367 35.8227 9.10353 35.8227 15.4203V19.8385C35.8227 24.6152 37.1046 29.305 39.5355 33.4219L39.7424 33.7722H5.25764L5.46448 33.4219C7.89541 29.305 9.17729 24.6152 9.17729 19.8385V15.4203ZM15.7108 37.2658C15.7925 37.581 15.8963 37.8908 16.0219 38.1929C16.3743 39.0407 16.8908 39.811 17.5419 40.4598C18.193 41.1086 18.966 41.6233 19.8167 41.9744C20.6675 42.3256 21.5793 42.5063 22.5001 42.5063C23.4209 42.5063 24.3327 42.3256 25.1835 41.9744C26.0342 41.6233 26.8072 41.1086 27.4583 40.4598C28.1094 39.811 28.6259 39.0407 28.9783 38.1929C29.1039 37.8908 29.2077 37.581 29.2894 37.2658H15.7108Z" fill="#687684"/>
</svg>
