<svg width="65" height="57" viewBox="0 0 65 57" fill="none" xmlns="http://www.w3.org/2000/svg">
<path fill-rule="evenodd" clip-rule="evenodd" d="M6.36832 18.2863L3.24197 20.0316C2.20303 20.6116 0.879522 20.2589 0.285841 19.2439C-0.307841 18.2289 0.0531147 16.936 1.09206 16.356L28.5585 1.0226C31.0008 -0.340865 33.9991 -0.340866 36.4415 1.0226L63.9079 16.356C64.9469 16.936 65.3078 18.2289 64.7142 19.2439C64.1205 20.2589 62.797 20.6116 61.758 20.0316L58.6317 18.2863L54.4559 47.8626C53.7166 53.0993 49.1354 57 43.7243 57H21.2757C15.8646 57 11.2834 53.0993 10.5441 47.8626L6.36832 18.2863ZM32.5003 37.9496C37.6856 37.9496 41.8891 33.843 41.8891 28.7772C41.8891 23.7114 37.6856 19.6048 32.5003 19.6048C27.3151 19.6048 23.1116 23.7114 23.1116 28.7772C23.1116 33.843 27.3151 37.9496 32.5003 37.9496Z" fill="white"/>
</svg>
