<svg width="44" height="39" viewBox="0 0 44 39" fill="none" xmlns="http://www.w3.org/2000/svg">
<path fill-rule="evenodd" clip-rule="evenodd" d="M0 4.33333C0 1.9401 1.96995 0 4.4 0H39.6C42.0301 0 44 1.9401 44 4.33333V34.6667C44 37.0599 42.0301 39 39.6 39H4.4C1.96995 39 0 37.0599 0 34.6667V4.33333ZM4.4 3.25H39.6C40.2075 3.25 40.7 3.73503 40.7 4.33333V6.35255L22.3051 18.43C22.1203 18.5513 21.8797 18.5513 21.6949 18.43L3.3 6.35255V4.33333C3.3 3.73502 3.79249 3.25 4.4 3.25ZM3.3 10.2586V34.6667C3.3 35.265 3.79249 35.75 4.4 35.75H39.6C40.2075 35.75 40.7 35.265 40.7 34.6667V10.2586L24.1356 21.1342C22.8424 21.9833 21.1576 21.9833 19.8644 21.1342L3.3 10.2586Z" fill="#687684"/>
</svg>
