<svg width="65" height="67" viewBox="0 0 65 67" fill="none" xmlns="http://www.w3.org/2000/svg">
<path fill-rule="evenodd" clip-rule="evenodd" d="M17.6771 0.880707H47.6348C58.5519 0.880707 64.781 7.22253 64.781 18.4859V49.3362C64.781 60.5335 58.584 66.9414 47.6669 66.9414H17.6771C6.72792 66.9414 0.562988 60.5335 0.562988 49.3362V18.4859C0.562988 7.22253 6.72792 0.880707 17.6771 0.880707ZM35.305 36.6526H44.424C45.901 36.6196 47.089 35.3974 47.089 33.878C47.089 32.3587 45.901 31.1365 44.424 31.1365H35.305V21.822C35.305 20.3026 34.117 19.0804 32.64 19.0804C31.163 19.0804 29.9749 20.3026 29.9749 21.822V31.1365H20.8881C20.1817 31.1365 19.5074 31.4338 18.9936 31.9293C18.512 32.4577 18.223 33.1481 18.223 33.878C18.223 35.3974 19.4111 36.6196 20.8881 36.6526H29.9749V46.0002C29.9749 47.5196 31.163 48.7417 32.64 48.7417C34.117 48.7417 35.305 47.5196 35.305 46.0002V36.6526Z" fill="white"/>
</svg>
