<svg width="45" height="45" viewBox="0 0 45 45" fill="none" xmlns="http://www.w3.org/2000/svg">
<path fill-rule="evenodd" clip-rule="evenodd" d="M33.748 36.1647C30.1753 39.189 25.5538 41.0127 20.5063 41.0127C9.181 41.0127 0 31.8317 0 20.5063C0 9.181 9.181 0 20.5063 0C31.8317 0 41.0127 9.181 41.0127 20.5063C41.0127 25.5538 39.189 30.1753 36.1647 33.748L44.4995 42.0828C45.1668 42.7501 45.1668 43.8321 44.4995 44.4995C43.8321 45.1668 42.7501 45.1668 42.0828 44.4995L33.748 36.1647ZM37.5949 20.5063C37.5949 29.9441 29.9441 37.5949 20.5063 37.5949C11.0686 37.5949 3.41772 29.9441 3.41772 20.5063C3.41772 11.0686 11.0686 3.41772 20.5063 3.41772C29.9441 3.41772 37.5949 11.0686 37.5949 20.5063Z" fill="#687684"/>
</svg>
